<svg xmlns="http://www.w3.org/2000/svg" width="16.179" height="17.5" viewBox="0 0 16.179 17.5">
  <g id="db" transform="translate(-247.91 -247.25)">
    <path id="Path_8409" data-name="Path 8409" d="M250.57,253.149a24.961,24.961,0,0,0,5.429.524c.862,0,1.708-.033,2.514-.1a.249.249,0,0,0-.04-.5c-.793.064-1.625.1-2.474.1a24.419,24.419,0,0,1-5.315-.511.249.249,0,0,0-.114.485Z" fill="#fff" stroke="#fff" stroke-width="0.5"/>
    <path id="Path_8410" data-name="Path 8410" d="M258.473,257.349c-.793.064-1.625.1-2.474.1a24.418,24.418,0,0,1-5.315-.511.25.25,0,0,0-.114.486,24.962,24.962,0,0,0,5.429.524c.862,0,1.708-.033,2.514-.1a.249.249,0,0,0-.04-.5Z" fill="#fff" stroke="#fff" stroke-width="0.5"/>
    <path id="Path_8411" data-name="Path 8411" d="M263.837,249.46c-.053-1.192-3.276-1.657-4.669-1.8-.429-.045-.88-.081-1.338-.106-.6-.034-1.212-.051-1.831-.051a28.349,28.349,0,0,0-4.4.318.249.249,0,1,0,.079.492A27.834,27.834,0,0,1,256,248c.61,0,1.216.017,1.8.05.45.025.893.061,1.315.1a14.615,14.615,0,0,1,3.15.618c1.021.357,1.073.661,1.073.718,0,.194-.428.621-2.03.988l-.134.03a28.508,28.508,0,0,1-10.354,0l-.134-.03c-1.587-.364-2.021-.786-2.029-.982v-.011c0-.117.146-.267.392-.411a5.4,5.4,0,0,1,1.35-.5.249.249,0,0,0-.124-.483c-1.4.36-2.117.831-2.117,1.4v13.022c0,.61.813,1.105,2.417,1.473a28.745,28.745,0,0,0,10.844,0c1.6-.368,2.417-.863,2.417-1.473V249.489A.28.28,0,0,0,263.837,249.46Zm-15.178.787.016.011.043.028.033.021.046.027.036.021.049.028.037.02.055.028.036.018.07.034.026.012.1.045.035.014.072.03.045.018.067.026.05.018.067.024.054.019.069.023.056.019.072.023.058.017.076.023.059.017.081.023.059.016.087.024.058.015.1.025.049.012.155.037a28.749,28.749,0,0,0,10.845,0l.155-.037.049-.012.1-.025.057-.015.088-.023.059-.017.081-.023.059-.017.076-.022.057-.018.072-.023.056-.019.069-.023.054-.019.067-.024.05-.018.067-.026.045-.018.072-.029.035-.015.1-.045.026-.012.07-.033.036-.019.056-.028.036-.02.05-.028.035-.021.046-.027.034-.021.042-.028.017-.011v3.583h0c0,.194-.428.62-2.03.988a28.29,28.29,0,0,1-10.622,0c-1.6-.368-2.029-.794-2.029-.988ZM261.31,263.5a28.233,28.233,0,0,1-10.622,0c-1.6-.367-2.029-.793-2.029-.987v-3.583l.017.011.041.027.035.022.045.027.036.021.049.027.037.021.055.028.036.018.071.034.025.012.1.045.033.014.074.03.044.017.068.027.049.018.069.024.052.018.07.024.055.018.073.024.058.017.076.023.059.017.081.023.059.016.088.024.057.015.1.025.049.012.155.037a28.75,28.75,0,0,0,10.845,0l.155-.037.048-.012.1-.025.056-.015.089-.024.058-.016.082-.023.058-.017.077-.023.057-.017.073-.024.055-.018.07-.024.053-.018.068-.024.049-.018.068-.027.044-.017.074-.03.033-.014.1-.045.025-.012.071-.034.036-.018.055-.028.037-.021.05-.027.036-.021.045-.027.034-.022.042-.027.017-.011v3.583h0C263.34,262.7,262.912,263.131,261.31,263.5Zm2.018-5.267c-.079.213-.566.594-2.018.927a28.289,28.289,0,0,1-10.622,0c-1.452-.333-1.939-.714-2.017-.927a.182.182,0,0,1-.012-.061v-3.583l.016.011.043.028.033.021.046.028.036.021.049.027.037.02.055.029.036.018.07.033.027.013.1.044.035.015.072.03.045.017.067.026.05.019.067.024.054.018.069.024.056.018.072.023.058.018.076.023.059.017.081.023.059.016.087.023.058.015.1.025.049.013.155.036a28.749,28.749,0,0,0,10.845,0l.155-.036.049-.013.1-.025.057-.015.088-.023.059-.016.081-.023.059-.017.076-.023.057-.018.072-.023.057-.018.069-.024.053-.018.067-.024.05-.019.067-.026.045-.017.072-.03.035-.015c.035-.014.068-.029.1-.044l.026-.013.07-.033.036-.018.056-.029.036-.02.05-.027.035-.021.046-.028.034-.021.042-.028.017-.011v3.583h0A.183.183,0,0,1,263.328,258.231Z" fill="#fff" stroke="#fff" stroke-width="0.5"/>
    <path id="Path_8412" data-name="Path 8412" d="M260.609,253.956a.971.971,0,1,0-.687-.284A.973.973,0,0,0,260.609,253.956Zm-.335-1.3a.472.472,0,1,1,0,.669.474.474,0,0,1,0-.669Z" fill="#fff" stroke="#fff" stroke-width="0.5"/>
    <path id="Path_8413" data-name="Path 8413" d="M259.922,256.581a.972.972,0,1,0,1.374,0A.972.972,0,0,0,259.922,256.581Zm1.021,1.022a.472.472,0,1,1,.139-.335A.47.47,0,0,1,260.943,257.6Z" fill="#fff" stroke="#fff" stroke-width="0.5"/>
    <path id="Path_8414" data-name="Path 8414" d="M259.922,260.871a.972.972,0,1,0,1.374,0A.972.972,0,0,0,259.922,260.871Zm1.021,1.022a.472.472,0,1,1,.139-.335A.47.47,0,0,1,260.943,261.893Z" fill="#fff" stroke="#fff" stroke-width="0.5"/>
    <path id="Path_8415" data-name="Path 8415" d="M258.473,261.7c-.349.028-.709.05-1.07.066a.249.249,0,0,0,.01.5h.011c.368-.016.734-.039,1.089-.067a.249.249,0,0,0-.04-.5Z" fill="#fff" stroke="#fff" stroke-width="0.5"/>
    <path id="Path_8416" data-name="Path 8416" d="M256.077,261.8H256a24.42,24.42,0,0,1-5.315-.511.249.249,0,0,0-.114.485A24.891,24.891,0,0,0,256,262.3h.078a.25.25,0,0,0,0-.5Z" fill="#fff" stroke="#fff" stroke-width="0.5"/>
  </g>
</svg>
