<svg xmlns="http://www.w3.org/2000/svg" width="17" height="15" viewBox="0 0 17 15">
  <g id="hotspot" transform="translate(-243.999 -137.168)">
    <ellipse id="Ellipse_119" data-name="Ellipse 119" cx="1.285" cy="1.729" rx="1.285" ry="1.729" transform="translate(251.214 142.938)" fill="#fff"/>
    <path id="Path_8397" data-name="Path 8397" d="M259.738,143.149c-.237,0-.428.258-.428.576a.709.709,0,0,0,.076.328,5.275,5.275,0,0,1,0,4.214.708.708,0,0,0-.076.327c0,.318.191.577.428.577a.418.418,0,0,0,.362-.269,6.754,6.754,0,0,0,0-5.486A.418.418,0,0,0,259.738,143.149Z" transform="translate(-4.518 -1.492)" fill="#fff"/>
    <path id="Path_8398" data-name="Path 8398" d="M262.776,140.5h0a.419.419,0,0,0-.363-.272c-.237,0-.428.258-.428.577a.716.716,0,0,0,.076.327,8.587,8.587,0,0,1,.568,1.382,10,10,0,0,1,0,5.84,8.511,8.511,0,0,1-.568,1.383.718.718,0,0,0-.076.327c0,.319.191.578.428.578a.419.419,0,0,0,.363-.272h0a11.2,11.2,0,0,0,0-9.872Z" transform="translate(-5.492 -0.767)" fill="#fff"/>
    <path id="Path_8399" data-name="Path 8399" d="M265.351,137.415h0a.412.412,0,0,0-.352-.248c-.236,0-.428.258-.428.576a.714.714,0,0,0,.09.355l.006.008a12.245,12.245,0,0,1,.978,2.294,14.577,14.577,0,0,1,0,8.533,12.217,12.217,0,0,1-.978,2.293l-.006.008a.718.718,0,0,0-.09.355c0,.319.192.577.428.577a.413.413,0,0,0,.352-.248h0a15.6,15.6,0,0,0,0-14.505Z" transform="translate(-6.14)" fill="#fff"/>
    <path id="Path_8400" data-name="Path 8400" d="M252.228,143.725c0-.318-.192-.576-.428-.576a.419.419,0,0,0-.363.268,6.762,6.762,0,0,0,0,5.486.42.42,0,0,0,.363.269c.236,0,.428-.259.428-.577a.718.718,0,0,0-.076-.327,5.267,5.267,0,0,1,0-4.214A.719.719,0,0,0,252.228,143.725Z" transform="translate(-2.023 -1.492)" fill="#fff"/>
    <path id="Path_8401" data-name="Path 8401" d="M249.288,141.132a.716.716,0,0,0,.076-.327c0-.319-.192-.577-.428-.577a.421.421,0,0,0-.363.272h0a11.205,11.205,0,0,0,0,9.872h0a.421.421,0,0,0,.363.272c.236,0,.428-.259.428-.578a.718.718,0,0,0-.076-.327,8.513,8.513,0,0,1-.568-1.383,9.979,9.979,0,0,1,0-5.84A8.59,8.59,0,0,1,249.288,141.132Z" transform="translate(-0.859 -0.767)" fill="#fff"/>
    <path id="Path_8402" data-name="Path 8402" d="M246.471,151.227a12.267,12.267,0,0,1-.977-2.293,14.561,14.561,0,0,1,0-8.533,12.3,12.3,0,0,1,.977-2.294l.006-.008a.707.707,0,0,0,.091-.355c0-.318-.192-.576-.429-.576a.41.41,0,0,0-.351.248h0a15.61,15.61,0,0,0,0,14.505h0a.411.411,0,0,0,.351.248c.237,0,.429-.259.429-.577a.71.71,0,0,0-.091-.355Z" fill="#fff"/>
  </g>
</svg>
