<?xml version="1.0" encoding="utf-8"?>
<!-- Generator: Adobe Illustrator 21.0.0, SVG Export Plug-In . SVG Version: 6.00 Build 0)  -->
<svg version="1.1" id="Layer_1" xmlns="http://www.w3.org/2000/svg" xmlns:xlink="http://www.w3.org/1999/xlink" x="0px" y="0px"
	 viewBox="0 0 17.1 17" enable-background="new 0 0 17.1 17" xml:space="preserve">
<path fill="#FCFCFC" d="M15.2,3.2c-1.5-0.5-3.1,0.2-3.6,1.7l-0.1,0.2L11,6.7L7.8,5.5l0.6-1.6l0.1-0.2c0.5-1.5-0.2-3.1-1.7-3.6
	C5.3-0.4,3.7,0.4,3.2,1.9s0.2,3.1,1.7,3.6l0.6,0.2l1.2,0.4L5.5,9.2L4.3,8.7L3.7,8.5C2.3,8,0.7,8.8,0.2,10.2
	c-0.5,1.5,0.2,3.1,1.7,3.6c1.4,0.5,3-0.2,3.6-1.7l0,0l0,0l0.6-1.8l3.2,1.2l-0.6,1.8l0,0l0,0c-0.5,1.4,0.2,3,1.7,3.6
	c1.5,0.5,3.1-0.2,3.6-1.7c0.5-1.5-0.2-3.1-1.7-3.6l-0.5-0.2l-1.3-0.5l1.1-3.1l1.3,0.5l0.5,0.2c1.5,0.5,3.1-0.2,3.6-1.7
	S16.7,3.7,15.2,3.2z M4.6,11.8c-0.4,1-1.5,1.5-2.5,1.2c-1-0.4-1.5-1.5-1.2-2.5c0.4-1,1.5-1.5,2.5-1.2L5.2,10L4.6,11.8z M5.1,4.6
	C4.1,4.2,3.6,3.1,4,2.1c0.4-1,1.5-1.5,2.5-1.2c1,0.4,1.5,1.5,1.2,2.5L7,5.2L5.1,4.6z M11.9,12.4c1,0.4,1.5,1.5,1.2,2.5
	s-1.5,1.5-2.5,1.2c-1-0.4-1.5-1.5-1.2-2.5l0.6-1.8L11.9,12.4z M9.6,10.6L6.4,9.5l1.1-3.1l3.2,1.2L9.6,10.6z M16.1,6.5
	c-0.4,1-1.5,1.5-2.5,1.2L11.8,7l0.6-1.8c0.4-1,1.5-1.5,2.5-1.2C15.9,4.4,16.4,5.5,16.1,6.5z"/>
</svg>
